# xmcd
#
# Track frame offsets:
#	183
#	19965
#	39505
#	54615
#	69755
#	86883
#	108100
#	119110
#	131368
#	143548
#	158043
#	175155
#	192915
#	213790
#	227895
#	237083
#	254533
#	275570
#
# Disc length: 3825 seconds
#
# Revision: 1
# Processed by: cddbd v1.5.1PL0 Copyright (c) Steve Scherf et al.
# Submitted via: audiograbber 1.83.01
#
DISCID=fa0eef12
DTITLE=Various Artist - More Green Velvet
DYEAR=1985
DGENRE=Irish ballads
TTITLE0=I will love you ev'ry time
TTITLE1=The old rustic bridge
TTITLE2=Beautiful dreamer
TTITLE3=Pal of my cradle days
TTITLE4=The fields of Athenry
TTITLE5=Rose of Allendale
TTITLE6=Do you think you could love me again
TTITLE7=The way old friends do
TTITLE8=Danny boy
TTITLE9=After all these years
TTITLE10=Clifs of Dooneen
TTITLE11=Since Maggie went away
TTITLE12=Down by the Sally gardens
TTITLE13=Thosee endearing young charms
TTITLE14=Annie Laurie
TTITLE15=Red is the rose
TTITLE16=Song for Ireland
TTITLE17=The lonesome boatman
EXTD=
EXTT0=
EXTT1=
EXTT2=
EXTT3=
EXTT4=
EXTT5=
EXTT6=
EXTT7=
EXTT8=
EXTT9=
EXTT10=
EXTT11=
EXTT12=
EXTT13=
EXTT14=
EXTT15=
EXTT16=
EXTT17=
PLAYORDER=
